<svg width="56" height="50" viewBox="0 0 56 50" fill="none" xmlns="http://www.w3.org/2000/svg">
<path d="M9.61357 30.7636H48.0678C48.4892 30.764 48.8991 30.6258 49.2343 30.3705C49.5695 30.1152 49.8116 29.7568 49.9233 29.3505L55.6914 8.2006C55.7699 7.91511 55.7813 7.61535 55.7249 7.32469C55.6685 7.03403 55.5457 6.76033 55.3661 6.52493C55.1865 6.28952 54.955 6.09877 54.6896 5.96754C54.4242 5.83631 54.1321 5.76815 53.836 5.76837H9.37323L8.65221 1.58647C8.57234 1.13679 8.33501 0.73023 7.98271 0.439584C7.63041 0.148938 7.18616 -0.00680968 6.7295 0.000228509H1.92271C1.41278 0.000228509 0.923728 0.202799 0.56315 0.563378C0.202571 0.923957 0 1.41301 0 1.92294C0 2.43288 0.202571 2.92193 0.56315 3.28251C0.923728 3.64308 1.41278 3.84566 1.92271 3.84566H5.12403L9.23864 26.9182C7.45387 26.9679 5.76194 27.7246 4.53507 29.0218C3.3082 30.319 2.64689 32.0504 2.69661 33.8352C2.74633 35.62 3.50301 37.3119 4.80019 38.5387C6.09737 39.7656 7.82879 40.4269 9.61357 40.3772H11.2286C10.7402 41.403 10.5194 42.5357 10.5868 43.6699C10.6542 44.804 11.0077 45.9026 11.6142 46.8633C12.2208 47.8239 13.0607 48.6154 14.0557 49.1639C15.0506 49.7124 16.1683 50 17.3044 50C18.4406 50 19.5582 49.7124 20.5532 49.1639C21.5481 48.6154 22.3881 47.8239 22.9946 46.8633C23.6012 45.9026 23.9546 44.804 24.0221 43.6699C24.0895 42.5357 23.8687 41.403 23.3802 40.3772H33.3399C32.8514 41.403 32.6306 42.5357 32.698 43.6699C32.7654 44.804 33.1189 45.9026 33.7254 46.8633C34.332 47.8239 35.1719 48.6154 36.1669 49.1639C37.1619 49.7124 38.2795 50 39.4156 50C40.5518 50 41.6694 49.7124 42.6644 49.1639C43.6593 48.6154 44.4993 47.8239 45.1058 46.8633C45.7124 45.9026 46.0658 44.804 46.1333 43.6699C46.2007 42.5357 45.9799 41.403 45.4914 40.3772H50.9519C51.4618 40.3772 51.9509 40.1746 52.3115 39.8141C52.6721 39.4535 52.8746 38.9644 52.8746 38.4545C52.8746 37.9446 52.6721 37.4555 52.3115 37.0949C51.9509 36.7344 51.4618 36.5318 50.9519 36.5318H9.61357C8.84867 36.5318 8.11509 36.2279 7.57422 35.6871C7.03335 35.1462 6.7295 34.4126 6.7295 33.6477C6.7295 32.8828 7.03335 32.1492 7.57422 31.6084C8.11509 31.0675 8.84867 30.7636 9.61357 30.7636ZM51.3172 9.6138L46.597 26.9182H13.1417L10.0558 9.6138H51.3172ZM20.1885 43.2613C20.1885 43.8317 20.0193 44.3893 19.7024 44.8636C19.3855 45.3379 18.9351 45.7075 18.4081 45.9258C17.8811 46.1441 17.3012 46.2012 16.7418 46.0899C16.1823 45.9787 15.6684 45.704 15.2651 45.3006C14.8617 44.8973 14.5871 44.3834 14.4758 43.8239C14.3645 43.2645 14.4216 42.6846 14.6399 42.1576C14.8582 41.6306 15.2278 41.1802 15.7021 40.8633C16.1764 40.5464 16.734 40.3772 17.3044 40.3772C18.0693 40.3772 18.8029 40.6811 19.3438 41.2219C19.8846 41.7628 20.1885 42.4964 20.1885 43.2613ZM42.2997 43.2613C42.2997 43.8317 42.1306 44.3893 41.8136 44.8636C41.4967 45.3379 41.0463 45.7075 40.5193 45.9258C39.9923 46.1441 39.4124 46.2012 38.853 46.0899C38.2935 45.9787 37.7796 45.704 37.3763 45.3006C36.9729 44.8973 36.6983 44.3834 36.587 43.8239C36.4757 43.2645 36.5328 42.6846 36.7511 42.1576C36.9694 41.6306 37.339 41.1802 37.8133 40.8633C38.2876 40.5464 38.8452 40.3772 39.4156 40.3772C40.1805 40.3772 40.9141 40.6811 41.455 41.2219C41.9958 41.7628 42.2997 42.4964 42.2997 43.2613Z" fill="black"/>
</svg>
