<svg width="60" height="51" viewBox="0 0 60 51" fill="none" xmlns="http://www.w3.org/2000/svg">
<path d="M54.5107 41.5572H52.1662C51.7509 40.1919 50.9078 38.9963 49.7612 38.1466C48.6146 37.2969 47.2253 36.8382 45.7983 36.8382C44.3712 36.8382 42.9819 37.2969 41.8353 38.1466C40.6888 38.9963 39.8456 40.1919 39.4303 41.5572H29.3568C28.9415 40.1919 28.0984 38.9963 26.9518 38.1466C25.8053 37.2969 24.416 36.8382 22.9889 36.8382C21.5618 36.8382 20.1725 37.2969 19.0259 38.1466C17.8794 38.9963 17.0362 40.1919 16.6209 41.5572H15.2301C14.6587 41.5477 14.1029 41.3695 13.6324 41.0452C13.1619 40.7208 12.7976 40.2648 12.5854 39.7342C12.3732 39.2036 12.3224 38.6221 12.4394 38.0627C12.5564 37.5034 12.8361 36.991 13.2432 36.59C13.5029 36.3267 13.8122 36.1173 14.1532 35.9741C14.4942 35.8309 14.8602 35.7566 15.2301 35.7556C15.4127 35.7473 15.5932 35.7138 15.7666 35.6562C15.9576 35.6842 16.1517 35.6842 16.3428 35.6562H52.8219C53.2839 35.6665 53.7351 35.5154 54.0978 35.2289C54.4604 34.9424 54.7118 34.5385 54.8088 34.0866L59.8554 10.4427C59.9186 10.1493 59.9144 9.84537 59.8432 9.5538C59.772 9.26223 59.6357 8.99057 59.4445 8.75922C59.2533 8.52787 59.0122 8.34284 58.7392 8.21803C58.4663 8.09322 58.1686 8.03186 57.8686 8.03857H12.8657L11.4352 1.76003C11.4381 1.70046 11.4381 1.64078 11.4352 1.58121C11.3541 1.34391 11.2332 1.12217 11.0775 0.92554C10.988 0.822845 10.8881 0.729633 10.7795 0.647376L10.4417 0.468557C10.3118 0.379419 10.1717 0.306051 10.0245 0.25H9.68672H9.48803H2.75251C2.22555 0.25 1.72018 0.459332 1.34757 0.831944C0.974956 1.20456 0.765625 1.70993 0.765625 2.23688C0.765625 2.76383 0.974956 3.2692 1.34757 3.64182C1.72018 4.01443 2.22555 4.22376 2.75251 4.22376H7.91839L9.34895 10.5818L13.8989 31.901C12.3584 32.2325 10.9779 33.0817 9.98732 34.3073C8.99676 35.5328 8.45592 37.0607 8.45485 38.6365C8.45484 40.4616 9.1785 42.2123 10.4672 43.5047C11.7558 44.797 13.5044 45.5257 15.3295 45.531H16.7203C17.1356 46.8963 17.9787 48.092 19.1253 48.9417C20.2719 49.7913 21.6611 50.25 23.0882 50.25C24.5153 50.25 25.9046 49.7913 27.0512 48.9417C28.1977 48.092 29.0409 46.8963 29.4562 45.531H39.4502C39.8655 46.8963 40.7086 48.092 41.8552 48.9417C43.0018 49.7913 44.3911 50.25 45.8181 50.25C47.2452 50.25 48.6345 49.7913 49.7811 48.9417C50.9277 48.092 51.7708 46.8963 52.1861 45.531H54.5107C55.0377 45.531 55.5431 45.3217 55.9157 44.9491C56.2883 44.5764 56.4976 44.0711 56.4976 43.5441C56.4976 43.0172 56.2883 42.5118 55.9157 42.1392C55.5431 41.7666 55.0377 41.5572 54.5107 41.5572ZM55.4247 12.1713L51.2324 31.8414H17.9323L13.74 12.1713H55.4247ZM22.9988 46.2662C22.4548 46.2701 21.922 46.1121 21.4681 45.8123C21.0141 45.5126 20.6596 45.0846 20.4496 44.5827C20.2397 44.0809 20.1837 43.528 20.2888 42.9943C20.394 42.4605 20.6556 41.9702 21.0402 41.5855C21.4249 41.2009 21.9152 40.9393 22.449 40.8342C22.9827 40.729 23.5356 40.785 24.0374 40.9949C24.5393 41.2049 24.9673 41.5594 25.267 42.0134C25.5668 42.4673 25.7248 43.0002 25.7208 43.5441C25.7208 43.9016 25.6504 44.2555 25.5136 44.5858C25.3768 44.916 25.1763 45.2161 24.9236 45.4689C24.6708 45.7216 24.3707 45.9222 24.0405 46.0589C23.7102 46.1957 23.3563 46.2662 22.9988 46.2662ZM45.8281 46.2662C45.2841 46.2701 44.7513 46.1121 44.2973 45.8123C43.8434 45.5126 43.4889 45.0846 43.2789 44.5827C43.0689 44.0809 43.0129 43.528 43.1181 42.9943C43.2233 42.4605 43.4848 41.9702 43.8695 41.5855C44.2541 41.2009 44.7445 40.9393 45.2782 40.8342C45.8119 40.729 46.3649 40.785 46.8667 40.9949C47.3685 41.2049 47.7965 41.5594 48.0963 42.0134C48.3961 42.4673 48.554 43.0002 48.5501 43.5441C48.5501 43.9016 48.4797 44.2555 48.3429 44.5858C48.2061 44.916 48.0056 45.2161 47.7528 45.4689C47.5001 45.7216 47.2 45.9222 46.8697 46.0589C46.5395 46.1957 46.1855 46.2662 45.8281 46.2662Z" fill="black"/>
</svg>
