<svg width="46" height="51" viewBox="0 0 46 51" fill="none" xmlns="http://www.w3.org/2000/svg">
<path d="M42.8969 13.7059C42.844 12.8819 42.1625 12.241 41.3365 12.241H33.0662V9.79761C33.0662 4.90462 28.4255 0.923096 22.7228 0.923096C17.0201 0.923096 12.3794 4.90462 12.3794 9.79761V12.241H4.10911C3.2831 12.241 2.60154 12.8819 2.54864 13.7059L0.328995 49.2629C0.302547 49.6943 0.455135 50.1154 0.750138 50.4307C1.04514 50.7441 1.45815 50.9231 1.88946 50.9231H43.5561C43.9874 50.9231 44.4004 50.7441 44.6954 50.4307C44.9905 50.1154 45.143 49.6943 45.1166 49.2629L42.8969 13.7059ZM15.5044 9.79761C15.5044 6.62785 18.7433 4.0481 22.7228 4.0481C26.7023 4.0481 29.9412 6.62785 29.9412 9.79761V12.241H15.5044V9.79761ZM12.3794 15.366V18.7596C12.3794 19.6222 13.0792 20.3221 13.9419 20.3221C14.8045 20.3221 15.5044 19.6222 15.5044 18.7596V15.366H29.9412V18.7596C29.9412 19.6222 30.6411 20.3221 31.5037 20.3221C32.3663 20.3221 33.0662 19.6222 33.0662 18.7596V15.366H39.8676L41.2214 37.0335H4.22418L5.57802 15.366H12.3794ZM3.55165 47.7981L4.0941 39.1169H41.3515L41.8939 47.7981H3.55165Z" fill="black"/>
</svg>
