<svg width="51" height="50" viewBox="0 0 51 50" fill="none" xmlns="http://www.w3.org/2000/svg">
<path d="M50 46.6844C50 48.5146 48.5145 50 46.6843 50C44.8541 50 43.3687 48.5146 43.3687 46.6844C43.3687 44.8541 44.8541 43.3687 46.6843 43.3687C48.5145 43.3687 50 44.8541 50 46.6844Z" fill="black"/>
<path d="M11.8037 46.6844C11.8037 48.5146 10.3183 50 8.48801 50C6.65777 50 5.17236 48.5146 5.17236 46.6844C5.17236 44.8541 6.65777 43.3687 8.48801 43.3687C10.3183 43.3687 11.8037 44.8541 11.8037 46.6844Z" fill="black"/>
<path d="M8.4748 4.24403L7.00265 0H0V2.25464H5.5305L13.1565 30.5438C8.85942 32.0424 5.2122 35.5703 4.49602 40.2387C4.24403 41.7905 4.24403 42.4403 4.24403 42.4403H50.9284V40.2255H6.80371C7.42706 36.0345 11.9496 32.5199 16.6313 31.9363C21.313 31.3528 48.8992 27.4005 48.8992 27.4005L50.9284 4.24403H8.4748ZM46.6843 25.4642L15.5172 29.8806C15.3979 29.9072 15.2785 29.9337 15.1592 29.9602L9.23077 6.44562H48.7135L46.6843 25.4642Z" fill="black"/>
</svg>
