<svg width="44" height="50" viewBox="0 0 44 50" fill="none" xmlns="http://www.w3.org/2000/svg">
<path d="M22 3.125C24.072 3.125 26.0591 3.9481 27.5243 5.41323C28.9894 6.87836 29.8125 8.8655 29.8125 10.9375V12.5H14.1875V10.9375C14.1875 8.8655 15.0106 6.87836 16.4757 5.41323C17.9409 3.9481 19.928 3.125 22 3.125ZM32.9375 12.5V10.9375C32.9375 8.03669 31.7852 5.2547 29.734 3.20352C27.6828 1.15234 24.9008 0 22 0C19.0992 0 16.3172 1.15234 14.266 3.20352C12.2148 5.2547 11.0625 8.03669 11.0625 10.9375V12.5H0.125V43.75C0.125 45.4076 0.78348 46.9973 1.95558 48.1694C3.12769 49.3415 4.7174 50 6.375 50H37.625C39.2826 50 40.8723 49.3415 42.0444 48.1694C43.2165 46.9973 43.875 45.4076 43.875 43.75V12.5H32.9375ZM3.25 15.625H40.75V43.75C40.75 44.5788 40.4208 45.3737 39.8347 45.9597C39.2487 46.5458 38.4538 46.875 37.625 46.875H6.375C5.5462 46.875 4.75134 46.5458 4.16529 45.9597C3.57924 45.3737 3.25 44.5788 3.25 43.75V15.625Z" fill="black"/>
</svg>
