<svg width="57" height="52" viewBox="0 0 57 52" fill="none" xmlns="http://www.w3.org/2000/svg">
<path d="M2.28792 0.560398C1.49285 0.401383 0.719412 0.917009 0.560398 1.71208C0.401383 2.50715 0.917009 3.28059 1.71208 3.4396L2.28792 0.560398ZM5.91717 2.78343L5.62925 4.22304L5.62925 4.22304L5.91717 2.78343ZM50.5948 33.297L52.0191 33.6531L52.0191 33.6531L50.5948 33.297ZM54.6556 17.0536L56.0799 17.4097L56.0799 17.4097L54.6556 17.0536ZM9.04492 6.23282L10.5057 6.08674L10.5057 6.08674L9.04492 6.23282ZM9.56758 11.4595L8.10676 11.6056L8.1082 11.62L8.10993 11.6344L9.56758 11.4595ZM12.397 35.0381L13.8547 34.8631L13.8547 34.8631L12.397 35.0381ZM19.5676 9.99137C18.7568 9.99137 18.0995 10.6487 18.0995 11.4595C18.0995 12.2703 18.7568 12.9276 19.5676 12.9276V9.99137ZM1.71208 3.4396L5.62925 4.22304L6.20509 1.34383L2.28792 0.560398L1.71208 3.4396ZM16.2841 39.9547H43.9482V37.0185H16.2841V39.9547ZM52.0191 33.6531L56.0799 17.4097L53.2314 16.6976L49.1705 32.941L52.0191 33.6531ZM7.58409 6.3789L8.10676 11.6056L11.0284 11.3134L10.5057 6.08674L7.58409 6.3789ZM8.10993 11.6344L10.9394 35.213L13.8547 34.8631L11.0252 11.2846L8.10993 11.6344ZM50.2879 9.99137H32.8109V12.9276H50.2879V9.99137ZM32.8109 9.99137H19.5676V12.9276H32.8109V9.99137ZM56.0799 17.4097C57.022 13.6416 54.172 9.99137 50.2879 9.99137V12.9276C52.2618 12.9276 53.7101 14.7826 53.2314 16.6976L56.0799 17.4097ZM43.9482 39.9547C47.7656 39.9547 51.0932 37.3566 52.0191 33.6531L49.1705 32.941C48.5714 35.3373 46.4183 37.0185 43.9482 37.0185V39.9547ZM16.2841 37.0185C15.0455 37.0185 14.0022 36.0929 13.8547 34.8631L10.9394 35.213C11.264 37.9185 13.5592 39.9547 16.2841 39.9547V37.0185ZM5.62925 4.22304C6.68384 4.43395 7.47708 5.30876 7.58409 6.3789L10.5057 6.08674C10.2703 3.73243 8.52519 1.80785 6.20509 1.34383L5.62925 4.22304Z" fill="black"/>
<path d="M31.729 30.3781H20.9182" stroke="black" stroke-width="2.93622" stroke-linecap="round" stroke-linejoin="round"/>
<circle cx="19.5665" cy="47.946" r="4.05406" fill="black"/>
<circle cx="43.892" cy="47.946" r="4.05406" fill="black"/>
</svg>
