<svg width="57" height="50" viewBox="0 0 57 50" fill="none" xmlns="http://www.w3.org/2000/svg">
<path d="M9.375 0C10.498 0 11.4648 0.799805 11.6797 1.90527L11.8262 3.125H52.9102C54.8926 3.125 56.4746 5.10254 55.918 7.0957L50.6445 25.8496C50.2637 27.1973 49.0332 28.125 47.6367 28.125H16.6699L17.5684 32.8125H47.6562C48.9551 32.8125 50 33.8574 50 35.1562C50 36.4551 48.9551 37.5 47.6562 37.5H15.5371C14.502 37.5 13.5352 36.6992 13.3203 35.5957L7.43555 4.6875H2.34375C1.0498 4.6875 0 3.6377 0 2.34375C0 1.0498 1.0498 0 2.34375 0H9.375ZM12.5 45.3125C12.5 42.7246 14.5996 40.625 17.1875 40.625C19.7754 40.625 21.875 42.7246 21.875 45.3125C21.875 47.9004 19.7754 50 17.1875 50C14.5996 50 12.5 47.9004 12.5 45.3125ZM50 45.3125C50 47.9004 47.9004 50 45.3125 50C42.7246 50 40.625 47.9004 40.625 45.3125C40.625 42.7246 42.7246 40.625 45.3125 40.625C47.9004 40.625 50 42.7246 50 45.3125Z" fill="black"/>
</svg>
