<svg width="54" height="51" viewBox="0 0 54 51" fill="none" xmlns="http://www.w3.org/2000/svg">
<path d="M0 2.03571C0 1.56211 0.188137 1.10791 0.523024 0.773024C0.85791 0.438138 1.31211 0.25 1.78571 0.25H7.14286C7.54118 0.25011 7.92804 0.383395 8.2419 0.62866C8.55576 0.873924 8.7786 1.21709 8.875 1.60357L10.3214 7.39286H51.7857C52.057 7.39293 52.3246 7.4548 52.5684 7.57376C52.8122 7.69272 53.0256 7.86565 53.1926 8.07943C53.3595 8.2932 53.4756 8.5422 53.532 8.80753C53.5883 9.07285 53.5835 9.34753 53.5179 9.61071L48.1607 31.0393C48.0643 31.4258 47.8415 31.7689 47.5276 32.0142C47.2138 32.2595 46.8269 32.3927 46.4286 32.3929H14.2857C13.8874 32.3927 13.5005 32.2595 13.1867 32.0142C12.8728 31.7689 12.65 31.4258 12.5536 31.0393L5.75 3.82143H1.78571C1.31211 3.82143 0.85791 3.63329 0.523024 3.2984C0.188137 2.96352 0 2.50932 0 2.03571ZM11.2143 10.9643L13 18.1071H17.8571V10.9643H11.2143ZM21.4286 10.9643V18.1071H28.5714V10.9643H21.4286ZM32.1429 10.9643V18.1071H39.2857V10.9643H32.1429ZM42.8571 10.9643V18.1071H47.7143L49.5 10.9643H42.8571ZM46.8214 21.6786H42.8571V28.8214H45.0357L46.8214 21.6786ZM39.2857 21.6786H32.1429V28.8214H39.2857V21.6786ZM28.5714 21.6786H21.4286V28.8214H28.5714V21.6786ZM17.8571 21.6786H13.8929L15.6786 28.8214H17.8571V21.6786ZM17.8571 39.5357C16.9099 39.5357 16.0015 39.912 15.3318 40.5818C14.662 41.2515 14.2857 42.1599 14.2857 43.1071C14.2857 44.0543 14.662 44.9627 15.3318 45.6325C16.0015 46.3023 16.9099 46.6786 17.8571 46.6786C18.8043 46.6786 19.7128 46.3023 20.3825 45.6325C21.0523 44.9627 21.4286 44.0543 21.4286 43.1071C21.4286 42.1599 21.0523 41.2515 20.3825 40.5818C19.7128 39.912 18.8043 39.5357 17.8571 39.5357ZM10.7143 43.1071C10.7143 41.2127 11.4668 39.3959 12.8064 38.0564C14.1459 36.7168 15.9627 35.9643 17.8571 35.9643C19.7515 35.9643 21.5684 36.7168 22.9079 38.0564C24.2475 39.3959 25 41.2127 25 43.1071C25 45.0015 24.2475 46.8184 22.9079 48.1579C21.5684 49.4974 19.7515 50.25 17.8571 50.25C15.9627 50.25 14.1459 49.4974 12.8064 48.1579C11.4668 46.8184 10.7143 45.0015 10.7143 43.1071ZM42.8571 39.5357C41.9099 39.5357 41.0015 39.912 40.3318 40.5818C39.662 41.2515 39.2857 42.1599 39.2857 43.1071C39.2857 44.0543 39.662 44.9627 40.3318 45.6325C41.0015 46.3023 41.9099 46.6786 42.8571 46.6786C43.8043 46.6786 44.7127 46.3023 45.3825 45.6325C46.0523 44.9627 46.4286 44.0543 46.4286 43.1071C46.4286 42.1599 46.0523 41.2515 45.3825 40.5818C44.7127 39.912 43.8043 39.5357 42.8571 39.5357ZM35.7143 43.1071C35.7143 41.2127 36.4668 39.3959 37.8064 38.0564C39.1459 36.7168 40.9627 35.9643 42.8571 35.9643C44.7515 35.9643 46.5684 36.7168 47.9079 38.0564C49.2474 39.3959 50 41.2127 50 43.1071C50 45.0015 49.2474 46.8184 47.9079 48.1579C46.5684 49.4974 44.7515 50.25 42.8571 50.25C40.9627 50.25 39.1459 49.4974 37.8064 48.1579C36.4668 46.8184 35.7143 45.0015 35.7143 43.1071Z" fill="black"/>
</svg>
