<svg width="60" height="50" viewBox="0 0 60 50" fill="none" xmlns="http://www.w3.org/2000/svg">
<path d="M48.4993 7.84314L49.3185 2.94118H52.2626C52.7027 1.2549 54.2309 0 56.0614 0C58.2335 0 60 1.75882 60 3.92157C60 6.08431 58.2335 7.84314 56.0614 7.84314C54.2309 7.84314 52.7027 6.58823 52.2626 4.90196H50.9885L50.4961 7.84314H50.5237L50.3051 8.98137V8.98431L47.7854 22.0961L46.7574 27.451H46.7564L45.435 34.3284C47.8652 34.5108 49.8906 36.3716 50.1299 38.7157C50.2697 40.0931 49.8148 41.4725 48.8813 42.498C47.9469 43.5275 46.6156 44.1176 45.2312 44.1176H43.2619C43.2619 47.3618 40.6122 50 37.354 50C34.0958 50 31.4461 47.3618 31.4461 44.1176H20.6149C20.6149 47.3618 17.9652 50 14.707 50C11.4488 50 8.79911 47.3618 8.79911 44.1176H4.8605C4.31599 44.1176 3.87585 43.6794 3.87585 43.1373C3.87585 42.5951 4.31599 42.1569 4.8605 42.1569H9.14374C9.95706 39.8755 12.14 38.2353 14.707 38.2353C17.274 38.2353 19.457 39.8755 20.2703 42.1569H31.7907C32.604 39.8755 34.787 38.2353 37.354 38.2353C39.921 38.2353 42.104 39.8755 42.9173 42.1569H45.2302C46.0593 42.1569 46.8569 41.802 47.4201 41.1833C47.9882 40.5569 48.2551 39.751 48.1694 38.9127C48.0197 37.4333 46.6471 36.2755 45.0451 36.2755H44.2761C44.2564 36.2755 44.2387 36.2755 44.217 36.2755L38.1831 36.2735L27.5065 36.2696V36.2686L20.4712 36.2667L9.78277 36.2647V36.2637L5.82054 36.2627C3.11176 36.2627 0.909092 34.0696 0.909092 31.3735V7.83137L48.4993 7.84314ZM56.0614 5.88235C57.1475 5.88235 58.0307 5.00294 58.0307 3.92157C58.0307 2.8402 57.1475 1.96078 56.0614 1.96078C54.9753 1.96078 54.0921 2.8402 54.0921 3.92157C54.0921 5.00294 54.9753 5.88235 56.0614 5.88235ZM14.706 40.1961C12.5339 40.1961 10.7674 41.9549 10.7674 44.1176C10.7674 46.2804 12.5339 48.0392 14.706 48.0392C16.8782 48.0392 18.6446 46.2804 18.6446 44.1176C18.6446 41.9549 16.8782 40.1961 14.706 40.1961ZM37.353 40.1961C35.1809 40.1961 33.4144 41.9549 33.4144 44.1176C33.4144 46.2804 35.1809 48.0392 37.353 48.0392C39.5252 48.0392 41.2916 46.2804 41.2916 44.1176C41.2916 41.9549 39.5252 40.1961 37.353 40.1961ZM2.87741 16.6667H9.78277V9.79314L2.87741 9.79118V16.6667ZM18.6446 34.3059V27.452H11.7521V34.3039L18.6446 34.3059ZM18.6446 25.4902V18.6275H11.7521V25.4902H18.6446ZM36.3684 34.3108V27.451H29.4758V34.3088L36.3684 34.3108ZM36.3684 25.4902V18.6275H29.4758V25.4902H36.3684ZM46.4463 18.6275H38.3377V25.4902H45.1268L46.4463 18.6275ZM11.7521 16.6667H18.6446V9.80392H11.7521V16.6667ZM20.6139 16.6667H27.5065V9.79804L20.6139 9.79608V16.6667ZM29.4758 9.80392V16.6667H36.3684V9.80392H29.4758ZM27.5065 18.6275H20.6139V25.4902H27.5065V18.6275ZM9.78277 18.6275H2.89021V25.4902H9.78277V18.6275ZM38.3377 9.80196V16.6676H46.8234L48.1428 9.8049L38.3377 9.80196ZM44.7507 27.451H38.3377V34.3108L43.4313 34.3127L44.7507 27.451ZM27.5065 27.451H20.6139V34.3059L27.5065 34.3078V27.451ZM5.82054 34.302L9.78277 34.3029V27.451H2.87741V31.3725C2.87741 32.9882 4.19783 34.302 5.82054 34.302Z" fill="black"/>
</svg>
