<svg width="53" height="50" viewBox="0 0 53 50" fill="none" xmlns="http://www.w3.org/2000/svg">
<path d="M46.7196 0C44.3695 0 42.3471 1.59073 41.7956 3.8769L40.4207 9.57634H5.06497C3.49822 9.57634 2.05138 10.2798 1.08415 11.5108C0.116928 12.7418 -0.226797 14.3165 0.148903 15.8353L4.30558 32.9257C4.85714 35.2038 6.87952 36.7946 9.22164 36.7946H31.8595C34.2017 36.7946 36.224 35.2038 36.7756 32.9257L38.2224 26.9704L38.2464 26.8585L42.4511 9.57634H42.4111L43.6741 4.33253C44.0098 2.92566 45.2568 1.94245 46.7037 1.94245H52.6669V0H46.7196ZM34.8971 32.462C34.5534 33.8609 33.3064 34.8441 31.8675 34.8441H9.22964C7.7828 34.8441 6.53579 33.8609 6.20006 32.462L2.04339 15.3717C1.81957 14.4365 2.0274 13.4612 2.61893 12.7098C3.21845 11.9504 4.10574 11.5188 5.07296 11.5188H39.965L37.3911 22.2142H12.0034V24.1567H36.9115L36.3439 26.5148L34.8971 32.462Z" fill="black"/>
<path d="M33.4822 39.3206C30.5405 39.3206 28.1425 41.7186 28.1425 44.6603C28.1425 47.6019 30.5405 50 33.4822 50C36.4238 50 38.8219 47.6019 38.8219 44.6603C38.8219 41.7186 36.4238 39.3206 33.4822 39.3206ZM33.4822 48.0576C31.6117 48.0576 30.0849 46.5308 30.0849 44.6603C30.0849 42.7898 31.6117 41.263 33.4822 41.263C35.3527 41.263 36.8795 42.7898 36.8795 44.6603C36.8795 46.5308 35.3527 48.0576 33.4822 48.0576Z" fill="black"/>
<path d="M7.60694 39.3206C4.66529 39.3206 2.26721 41.7186 2.26721 44.6603C2.26721 47.6019 4.66529 50 7.60694 50C10.5486 50 12.9467 47.6019 12.9467 44.6603C12.9467 41.7186 10.5566 39.3206 7.60694 39.3206ZM7.60694 48.0576C5.73644 48.0576 4.20966 46.5308 4.20966 44.6603C4.20966 42.7898 5.73644 41.263 7.60694 41.263C9.47744 41.263 11.0042 42.7898 11.0042 44.6603C11.0042 46.5308 9.48544 48.0576 7.60694 48.0576Z" fill="black"/>
</svg>
